<svg xmlns="http://www.w3.org/2000/svg" width="210" height="210" version="1.1" style="background-color: #1976d2">
  <path transform="translate(2.5 2.5)" style="fill:#dd0031"
    d="M102.5 2.5 9.4 35.7l14.2 123.1 78.9 43.7 78.9-43.7 14.2-123.1z" />
  <path transform="translate(2.5 2.5)" style="fill:#c3002f" d="M102.5 2.5v22.2-.1V202.5l78.9-43.7 14.2-123.1z" />
  <g transform="matrix(1.30948 0 0 1.30991 -31.403 -15.471)" style="stroke-width:.763537">
    <g transform="rotate(-18.873 9.186 1.527)"
      style="fill:#fff;fill-opacity:1;stroke:#fff;stroke-width:.83989;stroke-miterlimit:4;stroke-dasharray:none;stroke-opacity:1">
      <path
        d="M53.703 62.477q2.16-.28 3.76.16 1.64.44 2.8 1.36 1.2.92 1.96 2.12.8 1.2 1.28 2.48t.68 2.44q.2 1.16.2 1.96.08 4.76-1.28 8.4-1.32 3.64-3.44 6.36-2.08 2.68-4.64 4.52-2.52 1.84-4.92 3-2.36 1.12-4.24 1.64-1.88.52-2.64.6-.72.08-1.12-.32-.36-.44-.44-1.08-.04-.68.16-1.48.2-.84.6-1.6.44-.76 1-1.36.6-.6 1.28-.8.2-.08 1.36-.56 1.16-.52 2.76-1.48 1.64-.96 3.44-2.36 1.84-1.4 3.4-3.28 1.56-1.88 2.6-4.24 1.08-2.36 1.12-5.2 0-.96-.32-1.84-.28-.92-.88-1.56-.6-.68-1.48-1-.88-.32-2-.16-4.88.8-9.16 3.24-4.28 2.4-7.76 5.76-3.48 3.32-6.16 7.24-2.64 3.88-4.32 7.64-1.68 3.76-2.32 7.04-.64 3.24-.12 5.28.76 2.88 1.96 4.36 1.2 1.44 2.6 1.96 1.4.52 2.88.36 1.48-.2 2.72-.64 1.28-.44 2.2-.88.96-.44 1.32-.44.52 0 .56.88.04.88-.16 1.96t-.56 2q-.36.92-.6 1-2.56.76-4.76 2.08-2.2 1.28-4.04 2.92-1.8 1.64-3.16 3.52-1.36 1.88-2.24 3.76-.88 1.84-1.28 3.64-.36 1.76-.12 3.2.44 2.72 1.68 3.76 1.28 1.04 3.2.88 2.32-.16 4.8-1.44t4.92-3.32q2.44-2 4.68-4.56 2.28-2.56 4.16-5.24 1.88-2.68 3.24-5.28 1.4-2.6 2.04-4.72.16-.52.8-.24.68.24 1.28 1.04.64.8.92 2.04.32 1.24-.2 2.68-2.12 5.48-5.32 10.04-3.16 4.56-6.8 7.84-3.6 3.28-7.36 5.12-3.76 1.84-7.08 1.84-1.84 0-3.48-.6-1.6-.56-2.92-1.8-1.28-1.2-2.24-3.12-.92-1.88-1.4-4.52-.44-2.32-.04-4.68.36-2.4 1.2-4.6.84-2.24 2-4.16 1.2-1.92 2.36-3.36 1.16-1.48 2.12-2.36 1-.88 1.52-.96-2.16-.4-3.76-2.12-.68-.72-1.32-1.8-.64-1.12-1.12-2.68-.44-1.56-.64-3.6-.2-2.08 0-4.76.12-1.72.76-4.16.64-2.44 1.8-5.24 1.16-2.84 2.84-5.88 1.68-3.08 3.84-6.04 2.2-3 4.84-5.76 2.68-2.76 5.8-5 3.16-2.24 6.76-3.76 3.6-1.52 7.64-2.08z"
        style="fill:#fff;fill-opacity:1;stroke:#fff;stroke-width:.83989;stroke-miterlimit:4;stroke-dasharray:none;stroke-opacity:1" />
      <path
        d="M73.743 110.157q.88-1.24 1.92-1.6 1.08-.4 1.92-.24.84.12 1.32.6.48.44.2.8-.24.36-.56 1.32-.28.92-.64 2.2-.32 1.28-.68 2.84-.36 1.52-.72 3.08-.32 1.52-.64 2.96-.28 1.44-.48 2.52-.24 1.36-.2 2 .04.6.28.72.24.12.6-.16.36-.32.72-.76.88-1.04 2-2.6 1.12-1.6 2.2-3.32 1.08-1.72 2-3.4.92-1.72 1.44-3.04.36-.88.84-.92.52-.08.92.48.44.56.64 1.64.2 1.08-.04 2.44-.08.4-.6 1.8-.52 1.36-1.36 3.2-.84 1.8-2 3.76-1.16 1.92-2.52 3.44t-2.92 2.36q-1.52.8-3.12.36-1.64-.44-2.44-2.08-.8-1.68-1-3.96-.84 1.24-1.72 2.4-.88 1.12-1.84 2-.92.84-1.92 1.36-.96.48-1.96.48-1.2 0-2.24-.56-1.04-.6-1.88-1.56-.8-1-1.36-2.28-.56-1.28-.76-2.68-.68-4.24-.24-8.04.4-3.84 1.52-7.08 1.16-3.28 2.8-5.88t3.4-4.4q1.8-1.84 3.52-2.8 1.72-.96 3.04-.92 1.6.08 2.8.76 1.24.68 2.12 1.72.88 1 1.4 2.2.56 1.16.8 2.24.24 1.04.16 1.8-.08.76-.44.92-.92.44-1.52-.08t-1.2-1.28q-.6-.8-1.36-1.52-.76-.72-2-.76-1.44-.04-2.8.92-1.36.92-2.56 2.56-1.2 1.6-2.2 3.72-.96 2.08-1.64 4.36-.68 2.24-1 4.48-.32 2.2-.16 4.08.2 2.4.84 3.2.64.8 1.56.44.92-.4 2.04-1.76 1.12-1.4 2.28-3.36 1.2-1.96 2.36-4.32 1.16-2.36 2.16-4.72v-.04q.04 0 .04-.04.24-.72.44-1.2.24-.52.44-.8z"
        style="fill:#fff;fill-opacity:1;stroke:#fff;stroke-width:.83989;stroke-miterlimit:4;stroke-dasharray:none;stroke-opacity:1" />
      <path
        d="M96.783 88.437q1.16-.24 2.08.44.96.68 1.56 1.64.6.96.76 1.88.16.92-.2 1.08-.36.2-1.28.84-.92.64-1.88 1.76-.96 1.08-1.72 2.68-.72 1.56-.72 3.6 0 .84.2 2.28t.52 3.2q.32 1.76.72 3.68l.76 3.64q.36 1.72.64 3.16.32 1.4.44 2.16.48 2.8.24 5-.24 2.16-1 3.76-.72 1.6-1.88 2.64-1.12 1.04-2.44 1.56-1.28.52-2.64.52-1.32 0-2.44-.44-1.32-.52-2.44-1.48-1.12-1-1.96-2.2-.84-1.2-1.36-2.52-.52-1.36-.68-2.68-.24-2-.04-4 .16-2 .72-3.8.52-1.8 1.4-3.24.84-1.44 1.92-2.28.48-.36 1.12-.24.64.08 1.28.44t1.2.92q.6.56.96 1.12.4.56.48 1.04.08.44-.24.6-1.36.68-2.24 1.92-.88 1.2-1.36 2.64-.48 1.44-.52 2.96-.04 1.52.32 2.76.36 1.24 1.12 2.08.8.84 1.96.92.84.08 1.52-.32.72-.44 1.24-1.2.52-.8.76-1.84.28-1.08.28-2.36 0-2.28-.52-5t-1.2-5.44q-.64-2.76-1.28-5.24-.6-2.48-.76-4.24-.2-2.12.08-3.96.28-1.88.84-3.44.6-1.56 1.36-2.8.8-1.28 1.6-2.16.8-.92 1.52-1.4.72-.52 1.2-.64z"
        style="fill:#fff;fill-opacity:1;stroke:#fff;stroke-width:.83989;stroke-miterlimit:4;stroke-dasharray:none;stroke-opacity:1" />
      <path
        d="M107.903 98.197q.88-1.24 1.96-1.64 1.08-.44 1.96-.36.92.08 1.44.52.56.44.32.88-.68 1.32-1.44 3.4-.72 2.08-1.44 4.52-.72 2.44-1.44 5.12-.68 2.64-1.24 5.2-.56 2.56-1 4.84-.4 2.28-.6 3.96-.24 2.08.24 2.52.48.4 1.4-.4.92-.8 2.16-2.56 1.24-1.8 2.52-4.16 1.28-2.36 2.44-5.04 1.2-2.68 2-5.28.56-2.96 1.12-5.64.6-2.68 1.24-5.08.28-1.16 1.28-1.68 1-.56 2.04-.6 1.04-.08 1.84.28.8.36.76 1-.6 3.24-1.44 7.56-.84 4.28-1.84 9.04-1 4.72-2.12 9.6-1.08 4.88-2.16 9.32 2.04.4 3.84 1.6 1.84 1.2 3 3.44.52 1.08.72 2.08.2 1 .04 1.56-.12.6-.64.6-.48.04-1.32-.8-1.32-1.28-3.12-2.08-1.8-.76-3.88-1.04-.56 2.12-1.08 3.92-.52 1.84-.96 3.32-1.6 4.96-3.72 8.36-2.12 3.44-4.44 5.36-2.28 1.96-4.52 2.48-2.28.52-4.12-.28-1.88-.8-3.12-2.92-1.24-2.12-1.48-5.44-.12-1.4.2-3.32t1.2-4.04q.84-2.08 2.32-4.2 1.44-2.08 3.64-3.84 2.16-1.76 5.12-3.04 3-1.28 6.92-1.72.4-1.6.72-3.16.36-1.6.68-3.16-.92 1.36-1.92 2.52-1 1.12-2.12 1.88-1.08.76-2.28 1.08-1.16.28-2.36-.04-1.76-.52-2.52-2.4t-.88-4.48q-.12-2.04.08-4.44.16-2.4.56-4.92.36-2.56.96-5.12.56-2.56 1.24-4.92.72-2.4 1.52-4.48.84-2.08 1.72-3.68zm-8.32 58.88q1.8.2 3.4-1.08 1.56-1.28 2.96-3.64 1.4-2.32 2.6-5.48 1.2-3.16 2.24-6.72.12-.48.32-1.12-2.28.44-4.48 1.48-2.2 1.08-4 2.76-1.8 1.72-3.08 4.08-1.32 2.36-1.84 5.4-.4 2.24.16 3.2.56 1 1.72 1.12z"
        style="fill:#fff;fill-opacity:1;stroke:#fff;stroke-width:.83989;stroke-miterlimit:4;stroke-dasharray:none;stroke-opacity:1" />
    </g>
    <g transform="rotate(-23.164 7.45 1.527)"
      style="fill:#fff;fill-opacity:1;stroke:#fff;stroke-width:.83989;stroke-miterlimit:4;stroke-dasharray:none;stroke-opacity:1">
      <path
        d="M106.12 143.877q.68-.08 1.12.48.44.56.56 1.24.12.68-.16 1.2-.24.56-.92.4-.04 0-2.32.12l-6.28.44-9.52.76q-5.52.44-12.08 1.04-6.56.6-13.92 1.32-7.36.72-15.04 1.6-7.72.88-15.52 1.88-7.8 1-15.24 2.12t-14.24 2.36q-6.84 1.24-12.6 2.6-1.2.24-1.8.04-.24-.08-.36-.32-.16-.2-.08-.6.04-.36.4-.96.32-.6 1-1.44 1.04-1.28 4.04-2.4 3-1.12 7.52-2.16 4.48-1 10.24-1.92 5.72-.92 12.24-1.72 6.48-.76 13.52-1.44 7-.68 14.04-1.28 24.8-2.04 55.4-3.36z"
        style="fill:#fff;fill-opacity:1;stroke:#fff;stroke-width:.83989;stroke-miterlimit:4;stroke-dasharray:none;stroke-opacity:1" />
    </g>
  </g>
</svg>
