<svg width="205" height="205" xmlns="http://www.w3.org/2000/svg">
  <style type="text/css">
    .st0{ fill: #DD0031; }
    .st1{ fill: #C3002F; }
    .st2{ fill: #FFFFFF; }
  </style>
  <g>
    <polygon points="181.39999389648438,158.8000030517578 195.60000610351562,35.70000076293945 102.5,2.5 9.399999618530273,35.70000076293945 23.599998474121094,158.8000030517578 102.5,202.5 " class="st0"/>
    <polygon points="195.60000610351562,35.70000076293945 102.5,2.5 102.5,24.700000762939453 102.5,24.599998474121094 102.5,125.89999389648438 102.5,202.5 181.39999389648438,158.8000030517578 " class="st1"/>
    <path d="m102.5,24.6l-58.2,130.5l0,0l21.7,0l0,0l11.7,-29.2l49.4,0l11.7,29.2l0,0l21.7,0l0,0l-58,-130.5zm17,83.3l-34,0l17,-40.9l17,40.9z" class="st2"/>
  </g>
</svg>
